<svg class="Calculator" xmlns="http://www.w3.org/2000/svg" viewBox="0 0 20 20" enable-background="new 0 0 20 20"><path fill="#fff" d="M14.6 1H5.398C4.628 1 4 1.63 4 2.4v15.2c0 .77.63 1.4 1.398 1.4H14.6c.77 0 1.4-.63 1.4-1.4V2.4c0-.77-.63-1.4-1.4-1.4zM7 12c.69 0 1.25.447 1.25 1S7.69 14 7 14s-1.25-.447-1.25-1 .56-1 1.25-1zm-1.25-2c0-.553.56-1 1.25-1s1.25.447 1.25 1c0 .553-.56 1-1.25 1s-1.25-.447-1.25-1zM7 15c.69 0 1.25.447 1.25 1S7.69 17 7 17s-1.25-.447-1.25-1 .56-1 1.25-1zm3-3c.69 0 1.25.447 1.25 1s-.56 1-1.25 1-1.25-.447-1.25-1 .56-1 1.25-1zm-1.25-2c0-.553.56-1 1.25-1s1.25.447 1.25 1c0 .553-.56 1-1.25 1s-1.25-.447-1.25-1zM10 15c.69 0 1.25.447 1.25 1s-.56 1-1.25 1-1.25-.447-1.25-1 .56-1 1.25-1zm3-3c.69 0 1.25.447 1.25 1s-.56 1-1.25 1-1.25-.447-1.25-1 .56-1 1.25-1zm-1.25-2c0-.553.56-1 1.25-1s1.25.447 1.25 1c0 .553-.56 1-1.25 1s-1.25-.447-1.25-1zM13 15c.69 0 1.25.447 1.25 1s-.56 1-1.25 1-1.25-.447-1.25-1 .56-1 1.25-1zM5 7V4h10v3H5z"/></svg>