<svg class="Users" xmlns="http://www.w3.org/2000/svg" viewBox="0 0 20 20" enable-background="new 0 0 20 20"><path fill="#fff" d="M15.99 19.13c0-2.247-2.188-3.39-4.318-4.308-2.123-.914-2.8-1.684-2.8-3.334 0-.99.647-.667.93-2.48.12-.753.693-.013.803-1.73 0-.684-.313-.854-.313-.854s.16-1.013.22-1.793c.065-.816-.397-2.56-2.3-3.094-.332-.34-.557-.882.467-1.424C6.44.008 5.917 1.18 4.724 2.042c-1.015.756-1.29 1.953-1.24 2.59.065.78.223 1.793.223 1.793s-.314.17-.314.854c.11 1.717.684.976.803 1.728.284 1.814.933 1.492.933 2.48 0 1.65-.212 2.21-2.336 3.125C.664 15.53 0 17 .01 19.13.015 19.765 0 20 0 20h16s-.01-.234-.01-.87zm2.538-5.765c-1.135-.457-1.605-1.002-1.605-2.066 0-.642.418-.433.602-1.604.077-.484.447-.008.518-1.115 0-.44-.202-.55-.202-.55s.104-.656.144-1.16c.05-.626-.364-2.246-2.268-2.246-1.903 0-2.318 1.62-2.27 2.247.043.503.145 1.16.145 1.16s-.2.11-.2.55c.07 1.108.44.632.517 1.116.184 1.172.602.963.602 1.603 0 1.063-.44 1.56-1.81 2.15-.07.03-.12.07-.183.103 1.64.712 4.226 1.94 4.838 4.447H20v-2.318c0-1-.273-1.834-1.472-2.317z"/></svg>