<svg xmlns="http://www.w3.org/2000/svg" viewBox="0 0 356 103"><title id="title">Paul Clelland Accountancy logo</title><desc id="desc">A light green leaf motif with the text Paul Clelland Accountancy.</desc><style type="text/css">.st0{fill:#84C64A;}.st2{fill:#66AF10;} .st3{fill:#00BCD4;}</style><path class="st0" d="M39.1 37.3c0 3.6-.5 7-1.5 10.2h-.4c-19.5 0-35.4-15.8-35.4-35.4 0-3.6.5-7 1.5-10.2h.4c19.6 0 35.4 15.9 35.4 35.4z"/><path class="st2" d="M57 60.3V29c0-.3.1-.6.3-.8.2-.2.5-.3.8-.3h9.5c2.6 0 4.9.9 6.7 2.8 1.9 1.9 2.8 4.1 2.8 6.8 0 2.6-.9 4.9-2.8 6.8s-4 2.7-6.7 2.7l-8.3.1v13.2c0 .3-.1.6-.4.8-.2.2-.5.3-.8.3-.3 0-.6-.1-.8-.3-.2-.2-.3-.5-.3-.8zm2.3-15.6h8.3c2 0 3.7-.8 5.1-2.2 1.4-1.4 2.1-3.1 2.1-5.1s-.7-3.7-2.1-5.1c-1.4-1.4-3.1-2.1-5.1-2.1h-8.3v14.5zM102.2 38.2c.2-.2.5-.3.8-.3.3 0 .6.1.8.3.2.2.3.5.3.8v21.2c0 .3-.1.6-.3.8-.2.2-.5.3-.8.3-.3 0-.6-.1-.8-.3-.2-.2-.3-.5-.3-.8v-3.5c-1 1.4-2.3 2.6-3.9 3.4-1.6.8-3.2 1.2-5 1.2-3.1 0-5.7-1.2-7.9-3.5s-3.3-5.1-3.3-8.3 1.1-6 3.3-8.3c2.2-2.3 4.8-3.5 7.9-3.5 1.8 0 3.4.4 5 1.2 1.6.8 2.8 2 3.9 3.4v-3.5c0-.1.1-.3.3-.6zm-18 11.5c0 2.6.9 4.9 2.6 6.7 1.7 1.8 3.8 2.8 6.2 2.8 2.4 0 4.5-.9 6.2-2.8 1.7-1.8 2.6-4.1 2.6-6.7s-.9-4.9-2.6-6.7c-1.7-1.9-3.8-2.8-6.2-2.8-2.4 0-4.5.9-6.2 2.8-1.7 1.8-2.6 4-2.6 6.7zM113.7 51.8V39c0-.3.1-.6.3-.8.2-.2.5-.3.8-.3.3 0 .6.1.8.3.2.2.3.5.3.8v12.8c0 2 .7 3.7 2.1 5.1 1.4 1.4 3.1 2.1 5.1 2.2 2 0 3.7-.8 5.2-2.2 1.4-1.4 2.1-3.1 2.1-5.1V39c0-.3.1-.6.4-.8.2-.2.5-.3.8-.3.3 0 .6.1.8.3.2.2.3.5.3.8v12.8c0 2.7-.9 4.9-2.8 6.8s-4.1 2.8-6.8 2.8-4.9-.9-6.8-2.8c-1.7-1.8-2.6-4.1-2.6-6.8zM143.9 60.3V29c0-.3.1-.6.3-.8.2-.2.5-.3.8-.3.3 0 .6.1.8.3.2.2.4.5.4.8v31.3c0 .3-.1.6-.4.8s-.5.3-.8.3c-.3 0-.6-.1-.8-.3-.2-.2-.3-.5-.3-.8zM174.1 56.5c-3.4-3.3-5.1-7.3-5.1-12s1.7-8.7 5.1-12c3.4-3.3 7.5-5 12.4-5 4 0 7.6 1.2 10.8 3.7.3.2.4.5.5.8 0 .3 0 .6-.3.8-.2.3-.5.4-.8.5-.3 0-.6 0-.8-.2-2.8-2.2-5.9-3.3-9.4-3.3-4.2 0-7.8 1.4-10.7 4.3-2.9 2.9-4.4 6.4-4.4 10.4 0 4.1 1.5 7.5 4.4 10.4 2.9 2.8 6.4 4.3 10.3 4.3 3.9 0 7.2-1.1 9.7-3.3.3-.2.6-.3.9-.2s.6.2.7.5c.2.2.3.5.3.9s-.2.6-.4.8c-3.2 2.4-6.8 3.6-10.8 3.6-4.9-.1-9-1.7-12.4-5zM207.3 60.3V29c0-.3.1-.6.3-.8.2-.2.5-.3.8-.3.3 0 .6.1.8.3.2.2.4.5.4.8v31.3c0 .3-.1.6-.4.8s-.5.3-.8.3c-.3 0-.6-.1-.8-.3-.2-.2-.3-.5-.3-.8zM240 48.9v.1c0 .3-.1.6-.3.8-.2.2-.5.3-.8.3h-19.3c.1 2.6 1.1 4.7 2.8 6.4 1.8 1.7 3.9 2.6 6.3 2.6 1.6 0 3-.4 4.4-1.2 1.3-.8 2.4-1.8 3.2-3.1.4-.6.9-.8 1.5-.4s.8 1 .4 1.6c-1 1.6-2.4 2.9-4.1 3.9-1.7 1-3.5 1.4-5.4 1.4-3.2 0-5.9-1.1-8.1-3.4-2.2-2.3-3.3-5.1-3.3-8.3 0-3.2 1.1-6 3.3-8.3 2.2-2.3 4.9-3.5 8-3.5 3.1 0 5.7 1 7.8 3.1s3.3 4.9 3.6 8zm-5.6-6.5c-1.7-1.4-3.6-2.2-5.8-2.2-2.2 0-4.1.7-5.8 2.1-1.7 1.4-2.7 3.3-3.2 5.5h17.8c-.3-2.2-1.3-4-3-5.4zM248.5 60.3V29c0-.3.1-.6.3-.8.2-.2.5-.3.8-.3.3 0 .6.1.8.3.2.2.4.5.4.8v31.3c0 .3-.1.6-.4.8s-.5.3-.8.3c-.3 0-.6-.1-.8-.3s-.3-.5-.3-.8zM260.4 60.3V29c0-.3.1-.6.3-.8.2-.2.5-.3.8-.3.3 0 .6.1.8.3.2.2.4.5.4.8v31.3c0 .3-.1.6-.4.8s-.5.3-.8.3c-.3 0-.6-.1-.8-.3s-.3-.5-.3-.8zM289.8 38.2c.2-.2.5-.3.8-.3.3 0 .6.1.8.3.2.2.3.5.3.8v21.2c0 .3-.1.6-.3.8-.2.2-.5.3-.8.3-.3 0-.6-.1-.8-.3s-.3-.5-.3-.8v-3.5c-1 1.4-2.3 2.6-3.9 3.4-1.6.8-3.2 1.2-5 1.2-3.1 0-5.7-1.2-7.9-3.5s-3.3-5.1-3.3-8.3 1.1-6 3.3-8.3c2.2-2.3 4.8-3.5 7.9-3.5 1.8 0 3.4.4 5 1.2 1.6.8 2.8 2 3.9 3.4v-3.5c0-.1.1-.3.3-.6zm-18 11.5c0 2.6.9 4.9 2.6 6.7 1.7 1.8 3.8 2.8 6.2 2.8 2.4 0 4.5-.9 6.2-2.8 1.7-1.8 2.6-4.1 2.6-6.7s-.9-4.9-2.6-6.7c-1.7-1.9-3.8-2.8-6.2-2.8-2.4 0-4.5.9-6.2 2.8-1.7 1.8-2.6 4-2.6 6.7zM304 60.5c-.2.6-.5 1-1.1 1h-.3c-.4-.1-.6-.3-.8-.6V39.1c0-.3.1-.6.3-.8.2-.2.5-.3.8-.3.3 0 .6.1.8.3.2.2.3.5.3.8v2.3c1.9-2.3 4.2-3.4 7-3.4s5.1.9 7 2.8 2.8 4.1 2.8 6.7v12.8c0 .3-.1.6-.3.8-.2.2-.5.3-.8.3-.3 0-.6-.1-.8-.3s-.3-.5-.3-.8V47.5c0-2-.7-3.7-2.1-5.1-1.4-1.4-3.1-2.1-5.1-2.1-2 0-3.7.7-5.1 2.1-1.4 1.4-2.1 3.1-2.2 5.1v13zM350 60.3v-3.4c-1.1 1.4-2.4 2.5-3.9 3.3-1.6.8-3.3 1.2-5.1 1.2-3.2 0-5.9-1.1-8.1-3.4-2.2-2.3-3.3-5.1-3.3-8.3 0-3.2 1.1-6 3.3-8.3 2.2-2.3 4.9-3.5 8.1-3.5 1.8 0 3.5.4 5.1 1.2 1.6.8 2.9 2 3.9 3.4V29c0-.3.1-.6.4-.8.2-.2.5-.3.8-.3.3 0 .6.1.8.3.2.2.3.5.3.8v31.3c0 .3-.1.6-.3.8-.2.2-.5.3-.8.3-.3 0-.6-.1-.8-.3-.3-.2-.4-.5-.4-.8zm-18.1-10.6c0 2.6.9 4.8 2.7 6.6 1.8 1.8 3.9 2.7 6.3 2.7s4.5-.9 6.3-2.6 2.7-3.9 2.8-6.4v-.8c-.1-2.5-1-4.7-2.8-6.4-1.7-1.8-3.8-2.6-6.3-2.6-2.4 0-4.6.9-6.3 2.8-1.8 1.9-2.7 4.1-2.7 6.7z"/><path class="st3" d="M70.7 77.6c.2-.2.4-.3.6-.3s.4.1.6.3c.2.2.3.4.3.6v15.9c0 .2-.1.4-.3.6-.2.2-.4.3-.6.3s-.4-.1-.6-.3c-.2-.2-.3-.4-.3-.6v-2.6c-.8 1.1-1.7 1.9-2.9 2.6-1.2.6-2.4.9-3.7.9-2.3 0-4.3-.9-5.9-2.6-1.6-1.7-2.4-3.8-2.4-6.2s.8-4.5 2.4-6.2c1.6-1.7 3.6-2.6 5.9-2.6 1.3 0 2.6.3 3.7.9 1.2.6 2.1 1.5 2.9 2.5v-2.6c0-.2.1-.4.3-.6zm-13.5 8.6c0 2 .7 3.6 2 5s2.9 2.1 4.7 2.1c1.8 0 3.4-.7 4.7-2.1 1.3-1.4 1.9-3.1 1.9-5s-.6-3.6-1.9-5c-1.3-1.4-2.9-2.1-4.7-2.1-1.8 0-3.4.7-4.7 2.1s-2 3-2 5zM81 92.5c-1.8-1.7-2.6-3.8-2.6-6.3s.9-4.5 2.6-6.2c1.8-1.7 3.8-2.6 6.1-2.6s4.3.6 5.9 1.9c.2.1.3.3.3.5s0 .5-.2.6c-.4.4-.8.5-1.2.1-1.3-1.1-2.9-1.6-4.8-1.6s-3.5.7-5 2.1c-1.4 1.4-2.1 3.1-2.1 5s.7 3.6 2.1 5c1.4 1.4 3.1 2.1 4.9 2.1 1.9 0 3.5-.5 4.8-1.5.4-.3.8-.3 1.2.2s.3.8-.2 1.2c-1.6 1.2-3.5 1.9-5.5 1.9-2.4.1-4.5-.7-6.3-2.4zM101.6 92.5c-1.8-1.7-2.6-3.8-2.6-6.3s.9-4.5 2.6-6.2c1.8-1.7 3.8-2.6 6.1-2.6s4.3.6 5.9 1.9c.2.1.3.3.3.5s0 .5-.2.6c-.4.4-.8.5-1.2.1-1.3-1.1-2.9-1.6-4.8-1.6s-3.5.7-5 2.1c-1.4 1.4-2.1 3.1-2.1 5s.7 3.6 2.1 5c1.4 1.4 3.1 2.1 4.9 2.1 1.9 0 3.5-.5 4.8-1.5.4-.3.8-.3 1.2.2s.3.8-.2 1.2c-1.6 1.2-3.5 1.9-5.5 1.9-2.4.1-4.6-.7-6.3-2.4zM122.4 92.4c-1.6-1.7-2.4-3.8-2.4-6.2 0-2.4.8-4.5 2.4-6.2 1.6-1.7 3.6-2.6 5.9-2.6 2.3 0 4.3.9 5.9 2.6 1.6 1.7 2.4 3.8 2.4 6.2 0 2.4-.8 4.5-2.4 6.2-1.6 1.7-3.6 2.6-5.9 2.6-2.3 0-4.3-.8-5.9-2.6zm5.9-13.3c-1.8 0-3.4.7-4.7 2.1-1.3 1.4-2 3.1-2 5s.7 3.6 2 5 2.9 2.1 4.7 2.1c1.8 0 3.4-.7 4.7-2.1 1.3-1.4 2-3.1 2-5s-.7-3.6-2-5c-1.4-1.4-2.9-2.1-4.7-2.1zM142.9 87.8v-9.6c0-.2.1-.4.3-.6.2-.2.4-.3.6-.3.2 0 .4.1.6.3s.3.4.3.6v9.6c0 1.5.5 2.8 1.6 3.9s2.3 1.6 3.8 1.6 2.8-.6 3.9-1.6c1.1-1.1 1.6-2.3 1.6-3.9v-9.6c0-.2.1-.4.3-.6.2-.2.4-.3.6-.3s.4.1.6.3c.2.2.3.4.3.6v9.6c0 2-.7 3.7-2.1 5.1-1.4 1.4-3.1 2.1-5.1 2.1s-3.7-.7-5.1-2.1c-1.5-1.4-2.2-3.1-2.2-5.1zM167 94.3c-.1.5-.4.7-.8.7h-.2c-.3-.1-.5-.2-.6-.5V78.3c0-.2.1-.4.3-.6.2-.2.4-.3.6-.3.2 0 .4.1.6.3.2.2.2.4.2.6V80c1.4-1.7 3.2-2.6 5.3-2.6 2.1 0 3.9.7 5.3 2.1 1.4 1.4 2.1 3.1 2.1 5.1v9.6c0 .2-.1.4-.3.6-.2.2-.4.3-.6.3-.2 0-.4-.1-.6-.3-.2-.2-.3-.4-.3-.6v-9.6c0-1.5-.5-2.8-1.6-3.8-1.1-1.1-2.3-1.6-3.8-1.6s-2.8.5-3.8 1.6c-1.1 1.1-1.6 2.3-1.7 3.9v9.6zM192.7 77.4c.2 0 .4.1.6.3.2.2.3.4.3.6 0 .2-.1.4-.3.6-.2.2-.4.3-.6.3h-2.3V92c0 .4.1.7.4.9.3.2.6.4.8.4.2 0 .5.1.6.3.2.2.3.4.3.6 0 .2-.1.4-.3.6-.2.2-.4.3-.6.3-.9 0-1.6-.3-2.2-.9-.6-.6-.9-1.3-.9-2.2V79.1h-2.2c-.4 0-.6-.1-.7-.2-.1-.1-.1-.3-.1-.6v-.5c.1-.3.3-.4.8-.4h2.2v-6.6c0-.2.1-.4.3-.6.2-.2.4-.3.6-.3.2 0 .4.1.6.3.2.2.3.4.3.6v6.6h2.4zM215.1 77.6c.2-.2.4-.3.6-.3.2 0 .4.1.6.3s.3.4.3.6v15.9c0 .2-.1.4-.3.6-.2.2-.4.3-.6.3-.2 0-.4-.1-.6-.3-.2-.2-.3-.4-.3-.6v-2.6c-.8 1.1-1.7 1.9-2.9 2.6s-2.4.9-3.7.9c-2.3 0-4.3-.9-5.9-2.6-1.6-1.7-2.4-3.8-2.4-6.2s.8-4.5 2.4-6.2c1.6-1.7 3.6-2.6 5.9-2.6 1.3 0 2.6.3 3.7.9 1.2.6 2.1 1.5 2.9 2.5v-2.6c0-.2.1-.4.3-.6zm-13.5 8.6c0 2 .7 3.6 2 5s2.9 2.1 4.7 2.1c1.8 0 3.4-.7 4.7-2.1 1.3-1.4 1.9-3.1 1.9-5s-.6-3.6-1.9-5-2.8-2.1-4.7-2.1c-1.8 0-3.4.7-4.7 2.1s-2 3-2 5zM225.8 94.3c-.1.5-.4.7-.8.7h-.2c-.3-.1-.5-.2-.6-.5V78.3c0-.2.1-.4.3-.6s.4-.3.6-.3c.2 0 .4.1.6.3s.2.4.2.6V80c1.4-1.7 3.2-2.6 5.3-2.6 2.1 0 3.9.7 5.3 2.1 1.4 1.4 2.1 3.1 2.1 5.1v9.6c0 .2-.1.4-.3.6-.2.2-.4.3-.6.3-.2 0-.4-.1-.6-.3-.2-.2-.3-.4-.3-.6v-9.6c0-1.5-.5-2.8-1.6-3.8-1.1-1.1-2.3-1.6-3.8-1.6s-2.8.5-3.8 1.6c-1.1 1.1-1.6 2.3-1.7 3.9v9.6zM247.5 92.5c-1.8-1.7-2.6-3.8-2.6-6.3s.9-4.5 2.6-6.2c1.8-1.7 3.8-2.6 6.1-2.6s4.3.6 5.9 1.9c.2.1.3.3.3.5s0 .5-.2.6c-.4.4-.8.5-1.2.1-1.3-1.1-2.9-1.6-4.8-1.6s-3.5.7-5 2.1-2.1 3.1-2.1 5 .7 3.6 2.1 5c1.4 1.4 3.1 2.1 4.9 2.1 1.9 0 3.5-.5 4.8-1.5.4-.3.8-.3 1.2.2.4.4.3.8-.2 1.2-1.6 1.2-3.5 1.9-5.5 1.9-2.4.1-4.5-.7-6.3-2.4zM278.8 77.4c.5.1.8.4.8.8v15.4c0 2.3-.8 4.3-2.4 5.9-1.6 1.6-3.6 2.4-5.9 2.4-1.2 0-2.4-.3-3.6-.8-.5-.3-.6-.7-.4-1.1.2-.4.6-.6 1.1-.5.9.5 1.9.7 2.9.7 1.8 0 3.4-.6 4.7-1.9 1.3-1.3 2-2.8 2-4.6v-1.2c-1.5 1.7-3.3 2.5-5.3 2.5-2.1 0-3.8-.7-5.2-2.1-1.4-1.4-2.1-3.1-2.1-5.1v-9.6c0-.2.1-.4.3-.6s.4-.2.6-.2c.2 0 .4.1.6.2s.3.4.3.6v9.6c0 1.5.5 2.8 1.6 3.9s2.3 1.6 3.8 1.6 2.8-.5 3.8-1.6c1.1-1.1 1.6-2.3 1.6-3.9v-9.6c0-.2 0-.3.1-.4 0 0 .1-.1.1-.2s.1-.2.4-.3h.2z"/></svg>